<svg width="375" height="470" viewBox="0 0 375 470" fill="none" xmlns="http://www.w3.org/2000/svg">
<g clip-path="url(#clip0_1_199)">
<path opacity="0.3" d="M210.589 337.962C178.886 341.677 145.135 360.69 124.499 387.101C108.01 408.205 109.895 421.234 94.2511 428.929C72.9209 439.422 42.133 428.619 24.2428 412.685C-23.5328 370.135 5.21354 277.217 7.35867 270.574C32.7304 191.991 102.7 155.864 124.028 144.851C153.306 129.734 210.287 100.313 276.026 120.557C286.917 123.911 354.339 145.964 377.102 211.227C378.548 215.371 401.408 283.95 363.177 323.528C342.213 345.231 312.366 348.39 299.019 349.803C255.897 354.367 248.66 333.503 210.589 337.962Z" fill="#FF842E" fill-opacity="0.1"/>
<path opacity="0.3" d="M316.255 256.565C296.03 281.259 284.959 318.382 288.461 351.716C291.26 378.351 301.667 386.414 295.759 402.816C287.704 425.181 258.054 438.797 234.115 439.762C170.191 442.342 126.323 355.534 123.252 349.266C86.9143 275.113 112.15 200.52 119.842 177.783C130.401 146.57 150.952 85.8237 212.304 54.7207C222.468 49.5676 286.286 18.5956 347.996 49.7292C351.915 51.706 415.998 85.1575 415.99 140.185C415.986 170.36 396.711 193.366 388.091 203.654C360.243 236.892 340.543 226.91 316.255 256.565Z" fill="#FF842E" fill-opacity="0.1"/>
<path d="M280.914 213.649C270.815 199.333 261.907 184.213 254.278 168.441C241.232 141.664 202.346 116.246 198.7 121.768C195.053 127.29 220.077 149.09 223.707 167.775C227.338 186.459 237.078 218.87 254.715 238.513C272.351 258.157 280.914 213.649 280.914 213.649Z" fill="#FDCBA7"/>
<path d="M260.163 181.701C260.163 181.701 240.916 172.353 231.49 165.422C222.064 158.491 204.825 156.809 207.075 163.201C209.325 169.594 220.722 176.43 226.011 180.191C231.301 183.952 233.285 205.167 236.461 211.684C239.636 218.202 255.516 239.562 255.516 239.562C255.516 239.562 273.227 240.439 281.668 230.565C290.108 220.692 279.65 212.824 279.65 212.824C279.65 212.824 260.276 181.933 260.163 181.701Z" fill="#FDCBA7"/>
<path d="M225.695 177.176C225.695 177.176 176.828 164.975 162.519 171.082C148.21 177.189 208.319 188.814 218.352 204.087C228.386 219.359 240.864 244.971 255.514 239.563" fill="#FDCBA7"/>
<path d="M192.657 104.757L164.236 118.603C158.455 121.42 156.052 128.39 158.869 134.171L194.493 207.291C197.31 213.072 204.28 215.475 210.061 212.659L238.481 198.812C244.262 195.995 246.666 189.025 243.849 183.244L208.225 110.125C205.408 104.343 198.438 101.94 192.657 104.757Z" fill="#313131"/>
<path d="M280.883 208.704C272.837 188.588 259.761 233.85 240.65 241.896C221.539 249.942 382.471 425.961 382.471 425.961L387.5 287.161C387.5 287.161 288.927 228.82 280.883 208.704Z" fill="#FF842E"/>
<path d="M279.469 232.243C279.469 232.243 330.464 285.853 404.995 315.927" stroke="white"/>
<path d="M186.452 151.383L182.603 153.345C182.348 153.475 182.155 153.701 182.066 153.973C181.978 154.246 182.001 154.542 182.131 154.797L184.093 158.646C184.154 158.777 184.242 158.894 184.349 158.991C184.457 159.087 184.583 159.161 184.72 159.208C184.857 159.254 185.002 159.273 185.146 159.263C185.29 159.253 185.431 159.214 185.56 159.148C185.688 159.082 185.803 158.991 185.896 158.881C185.989 158.77 186.059 158.642 186.101 158.504C186.144 158.365 186.158 158.22 186.144 158.076C186.129 157.932 186.086 157.793 186.016 157.666L184.545 154.779L187.433 153.307C187.563 153.245 187.68 153.158 187.777 153.05C187.873 152.943 187.947 152.816 187.994 152.68C188.04 152.543 188.059 152.398 188.049 152.254C188.039 152.11 188 151.969 187.934 151.84C187.868 151.711 187.778 151.597 187.667 151.504C187.556 151.411 187.428 151.341 187.29 151.298C187.152 151.256 187.006 151.241 186.862 151.256C186.719 151.271 186.579 151.314 186.452 151.383Z" fill="white"/>
<path d="M220.911 160.489C220.656 160.619 220.463 160.845 220.375 161.118C220.287 161.39 220.31 161.686 220.44 161.941L221.91 164.826L219.022 166.298C218.775 166.433 218.592 166.659 218.509 166.927C218.426 167.195 218.451 167.485 218.579 167.735C218.706 167.985 218.926 168.176 219.192 168.267C219.457 168.358 219.748 168.341 220.002 168.222L223.852 166.26C224.106 166.13 224.298 165.904 224.386 165.633C224.474 165.361 224.451 165.066 224.322 164.811L222.361 160.961C222.231 160.707 222.005 160.514 221.734 160.426C221.462 160.337 221.166 160.36 220.911 160.489V160.489Z" fill="white"/>
<path d="M209.536 139.621L205.687 141.582C205.441 141.717 205.257 141.943 205.175 142.211C205.092 142.48 205.117 142.77 205.244 143.02C205.372 143.27 205.592 143.461 205.857 143.551C206.123 143.642 206.414 143.626 206.667 143.506L209.553 142.036L211.024 144.924C211.086 145.055 211.173 145.172 211.281 145.268C211.389 145.364 211.515 145.438 211.651 145.485C211.788 145.532 211.933 145.551 212.077 145.54C212.222 145.53 212.362 145.491 212.491 145.425C212.62 145.36 212.734 145.269 212.827 145.158C212.92 145.047 212.99 144.919 213.033 144.781C213.075 144.643 213.09 144.498 213.075 144.354C213.061 144.21 213.017 144.07 212.948 143.944L210.986 140.095C210.857 139.84 210.631 139.647 210.359 139.558C210.087 139.469 209.792 139.492 209.536 139.621V139.621Z" fill="white"/>
<path d="M199.788 176.099L196.9 177.57L195.429 174.684C195.368 174.553 195.28 174.436 195.173 174.34C195.065 174.243 194.939 174.17 194.802 174.123C194.665 174.076 194.52 174.057 194.376 174.068C194.232 174.078 194.091 174.117 193.962 174.183C193.833 174.248 193.719 174.339 193.626 174.45C193.533 174.56 193.463 174.689 193.42 174.827C193.378 174.965 193.363 175.11 193.378 175.254C193.393 175.398 193.436 175.537 193.506 175.664L195.467 179.514C195.598 179.769 195.824 179.961 196.096 180.049C196.368 180.137 196.664 180.113 196.919 179.983L200.768 178.022C200.899 177.96 201.016 177.873 201.112 177.765C201.208 177.658 201.282 177.532 201.329 177.395C201.376 177.258 201.394 177.113 201.384 176.969C201.374 176.825 201.335 176.684 201.269 176.555C201.204 176.426 201.113 176.312 201.002 176.219C200.891 176.126 200.763 176.056 200.625 176.013C200.487 175.971 200.341 175.956 200.198 175.971C200.054 175.986 199.914 176.029 199.788 176.099Z" fill="white"/>
<path d="M227.859 137.132C227.859 137.132 204.836 117.65 203.996 123.108C203.156 128.566 222.883 144.37 232.859 160.718" fill="#FDCBA7"/>
<path d="M222.609 253.188C222.609 253.188 238.309 303.079 300.672 362.325" stroke="#FF842E"/>
<rect x="184" y="168.27" width="40.9336" height="2.28578" rx="1.14289" transform="rotate(-26.5086 184 168.27)" fill="white"/>
</g>
<defs>
<clipPath id="clip0_1_199">
<rect width="375" height="473" fill="white" transform="translate(0 -3)"/>
</clipPath>
</defs>
</svg>
