<svg width="250" height="279" viewBox="0 0 250 279" fill="none" xmlns="http://www.w3.org/2000/svg">
<path opacity="0.1" d="M145.184 100.151C124.916 91.2791 105.817 70.3513 96.5729 46.2804C89.1862 27.0466 92.5713 17.4707 83.5352 8.62309C71.2144 -3.4417 49.1616 -1.07011 34.7581 7.67234C-3.70577 31.0161 -0.0628002 107.345 0.256985 112.819C4.03614 177.574 44.1707 218.453 56.4046 230.913C73.1984 248.018 105.883 281.309 152.507 278.395C160.231 277.913 208.26 273.942 233.989 228.513C235.623 225.629 261.962 177.69 243.296 140.228C233.061 119.685 213.925 111.589 205.368 107.969C177.72 96.2734 169.521 110.805 145.184 100.151Z" fill="url(#paint0_linear_5_243)"/>
<defs>
<linearGradient id="paint0_linear_5_243" x1="178.437" y1="64.5531" x2="27.6505" y2="199.277" gradientUnits="userSpaceOnUse">
<stop stop-color="#FF842E"/>
<stop offset="1" stop-color="white"/>
</linearGradient>
</defs>
</svg>
