<svg width="375" height="453" viewBox="0 0 375 453" fill="none" xmlns="http://www.w3.org/2000/svg">
<g clip-path="url(#clip0_3265_12239)">
<path opacity="0.3" d="M155.705 180.608C171.323 162.717 179.547 136.063 176.324 112.296C173.749 93.3062 165.427 87.6768 169.863 75.8874C175.91 59.8119 199.117 49.716 217.992 48.7282C268.395 46.0884 304.203 107.547 306.712 111.987C336.405 164.5 317.521 218.095 311.765 234.432C303.863 256.858 288.484 300.505 240.505 323.486C232.556 327.294 182.628 350.212 133.509 328.743C130.389 327.38 79.3656 304.285 78.614 264.98C78.2019 243.426 93.0937 226.753 99.7531 219.297C121.268 195.208 136.95 202.092 155.705 180.608Z" fill="#FF842E" fill-opacity="0.1"/>
<path opacity="0.3" d="M144.651 273.553C142.199 251.243 127.907 227.308 107.698 212.493C91.5498 200.654 81.4172 201.819 75.66 190.738C67.8091 175.63 76.6057 154.142 89.2091 141.774C122.863 108.745 194.554 130.071 199.678 131.659C260.294 150.439 287.372 200.019 295.626 215.132C306.957 235.877 329.008 276.254 312.414 322.171C309.664 329.778 291.645 376.855 240.709 392.041C237.475 393.006 183.966 408.219 153.782 380.885C137.23 365.897 135.183 344.898 134.268 335.508C131.311 305.169 147.595 300.343 144.651 273.553Z" fill="#FF842E" fill-opacity="0.1"/>
<path d="M158.302 265.669H79.6675V384.625H158.302V265.669Z" fill="white"/>
<path d="M158.486 265.525H118.956V344.208H158.486V265.525Z" fill="#FCE7D9"/>
<path d="M116.371 243.257H88.4528V265.525H116.371V243.257Z" fill="white"/>
<path d="M116.371 243.257H109.717V265.525H116.371V243.257Z" fill="white"/>
<path d="M160.8 264.226H72.8365V265.525H160.8V264.226Z" fill="white"/>
<path d="M101.723 275.236H95.0311V288.011H101.723V275.236Z" fill="#FFD7BA"/>
<path d="M118.956 293.025C118.956 293.159 110.106 293.269 99.1937 293.269C88.281 293.269 79.4315 293.159 79.4315 293.025C79.4315 292.89 88.28 292.781 99.1937 292.781C110.107 292.781 118.956 292.885 118.956 293.025Z" fill="white"/>
<path d="M141.598 275.236H134.906V288.011H141.598V275.236Z" fill="white"/>
<path d="M158.83 293.025C158.83 293.159 149.98 293.269 139.068 293.269C128.155 293.269 119.306 293.159 119.306 293.025C119.306 292.89 128.154 292.781 139.068 292.781C149.981 292.781 158.83 292.885 158.83 293.025Z" fill="white"/>
<path d="M141.598 300.599H134.906V313.374H141.598V300.599Z" fill="white"/>
<path d="M158.83 318.387C158.83 318.521 149.98 318.631 139.068 318.631C128.155 318.631 119.306 318.521 119.306 318.387C119.306 318.252 128.154 318.143 139.068 318.143C149.981 318.143 158.83 318.253 158.83 318.387Z" fill="white"/>
<path d="M141.598 326.727H134.906V339.501H141.598V326.727Z" fill="white"/>
<path d="M158.83 344.514C158.83 344.649 149.98 344.758 139.068 344.758C128.155 344.758 119.306 344.649 119.306 344.514C119.306 344.379 128.154 344.27 139.068 344.27C149.981 344.27 158.83 344.38 158.83 344.514Z" fill="white"/>
<path d="M141.598 352.854H134.906V365.628H141.598V352.854Z" fill="white"/>
<path d="M158.83 370.641C158.83 370.776 149.98 370.885 139.068 370.885C128.155 370.885 119.306 370.776 119.306 370.641C119.306 370.506 128.154 370.397 139.068 370.397C149.981 370.397 158.83 370.507 158.83 370.641Z" fill="white"/>
<path d="M101.723 300.986H95.0311V313.76H101.723V300.986Z" fill="#FFD7BA"/>
<path d="M118.956 318.774C118.956 318.908 110.106 319.018 99.1937 319.018C88.281 319.018 79.4315 318.908 79.4315 318.774C79.4315 318.64 88.28 318.53 99.1937 318.53C110.107 318.53 118.956 318.643 118.956 318.774Z" fill="white"/>
<path d="M101.723 326.735H95.0311V339.509H101.723V326.735Z" fill="white"/>
<path d="M118.956 344.523C118.956 344.658 110.106 344.767 99.1937 344.767C88.281 344.767 79.4315 344.658 79.4315 344.523C79.4315 344.388 88.28 344.28 99.1937 344.28C110.107 344.28 118.956 344.388 118.956 344.523Z" fill="white"/>
<path d="M101.723 352.485H95.0311V365.259H101.723V352.485Z" fill="white"/>
<path d="M118.956 370.272C118.956 370.407 110.106 370.516 99.1937 370.516C88.281 370.516 79.4315 370.407 79.4315 370.272C79.4315 370.137 88.28 370.028 99.1937 370.028C110.107 370.028 118.956 370.138 118.956 370.272Z" fill="white"/>
<path d="M258.584 191.242H151.035V384.624H258.584V191.242Z" fill="white"/>
<path d="M258.584 191.242H204.809V307.588H258.584V191.242Z" fill="#FCE7D9"/>
<path d="M201.294 168.255H163.316V191.242H201.294V168.255Z" fill="white"/>
<path d="M201.293 168.255H192.242V191.242H201.293V168.255Z" fill="#FCE7D9"/>
<path d="M261.731 189.901H142.072V191.242H261.731V189.901Z" fill="white"/>
<path d="M181.368 201.268H172.265V214.454H181.368V201.268Z" fill="#FCE7D9"/>
<g opacity="0.1">
<g opacity="0.1">
<path opacity="0.1" d="M204.809 219.629C204.809 219.771 192.771 219.881 177.923 219.881C163.076 219.881 151.035 219.769 151.035 219.629C151.035 219.49 163.072 219.378 177.923 219.378C192.775 219.378 204.809 219.491 204.809 219.629Z" fill="#313131"/>
</g>
</g>
<path d="M235.61 201.268H226.507V214.454H235.61V201.268Z" fill="white"/>
<g opacity="0.11">
<g opacity="0.11">
<path opacity="0.11" d="M259.052 219.629C259.052 219.771 247.013 219.881 232.166 219.881C217.318 219.881 205.278 219.769 205.278 219.629C205.278 219.49 217.314 219.378 232.166 219.378C247.017 219.378 259.052 219.491 259.052 219.629Z" fill="#313131"/>
</g>
</g>
<path d="M235.61 227.448H226.507V240.634H235.61V227.448Z" fill="white"/>
<g opacity="0.11">
<g opacity="0.11">
<path opacity="0.11" d="M259.052 245.81C259.052 245.952 247.013 246.061 232.166 246.061C217.318 246.061 205.278 245.949 205.278 245.81C205.278 245.671 217.314 245.556 232.166 245.556C247.017 245.556 259.052 245.671 259.052 245.81Z" fill="#313131"/>
</g>
</g>
<path d="M235.61 254.419H226.507V267.605H235.61V254.419Z" fill="white"/>
<path d="M259.052 272.779C259.052 272.921 247.013 273.031 232.166 273.031C217.318 273.031 205.278 272.918 205.278 272.779C205.278 272.639 217.314 272.527 232.166 272.527C247.017 272.527 259.052 272.641 259.052 272.779Z" fill="white"/>
<path d="M235.61 281.389H226.507V294.575H235.61V281.389Z" fill="white"/>
<path d="M259.052 299.751C259.052 299.893 247.013 300.003 232.166 300.003C217.318 300.003 205.278 299.89 205.278 299.751C205.278 299.612 217.314 299.499 232.166 299.499C247.017 299.499 259.052 299.612 259.052 299.751Z" fill="white"/>
<path d="M235.61 307.588H226.507V320.774H235.61V307.588Z" fill="white"/>
<path d="M259.052 325.95C259.052 326.092 247.013 326.202 232.166 326.202C217.318 326.202 205.278 326.089 205.278 325.95C205.278 325.812 217.314 325.698 232.166 325.698C247.017 325.698 259.052 325.811 259.052 325.95Z" fill="white"/>
<path d="M235.61 333.893H226.507V347.079H235.61V333.893Z" fill="white"/>
<path d="M235.61 360.542H226.507V373.728H235.61V360.542Z" fill="white"/>
<path d="M259.052 352.254C259.052 352.397 247.013 352.507 232.166 352.507C217.318 352.507 205.278 352.394 205.278 352.254C205.278 352.115 217.314 352.003 232.166 352.003C247.017 352.003 259.052 352.116 259.052 352.254Z" fill="white"/>
<path d="M181.368 227.848H172.265V241.034H181.368V227.848Z" fill="#FCE7D9"/>
<g opacity="0.1">
<g opacity="0.1">
<path opacity="0.1" d="M204.809 246.209C204.809 246.351 192.771 246.462 177.923 246.462C163.076 246.462 151.035 246.349 151.035 246.209C151.035 246.07 163.072 245.958 177.923 245.958C192.775 245.958 204.809 246.071 204.809 246.209Z" fill="#313131"/>
</g>
</g>
<path d="M181.368 254.428H172.265V267.614H181.368V254.428Z" fill="#FCE7D9"/>
<g opacity="0.1">
<g opacity="0.1">
<path opacity="0.1" d="M204.809 272.789C204.809 272.932 192.771 273.042 177.923 273.042C163.076 273.042 151.035 272.929 151.035 272.789C151.035 272.65 163.072 272.538 177.923 272.538C192.775 272.538 204.809 272.651 204.809 272.789Z" fill="#313131"/>
</g>
</g>
<path d="M181.368 281.008H172.265V294.194H181.368V281.008Z" fill="#FCE7D9"/>
<g opacity="0.1">
<g opacity="0.1">
<path opacity="0.1" d="M204.809 299.37C204.809 299.512 192.771 299.622 177.923 299.622C163.076 299.622 151.035 299.509 151.035 299.37C151.035 299.232 163.072 299.118 177.923 299.118C192.775 299.118 204.809 299.231 204.809 299.37Z" fill="#313131"/>
</g>
</g>
<g opacity="0.1">
<g opacity="0.1">
<path opacity="0.1" d="M204.809 325.95C204.809 326.092 192.771 326.202 177.923 326.202C163.076 326.202 151.035 326.089 151.035 325.95C151.035 325.812 163.072 325.698 177.923 325.698C192.775 325.698 204.809 325.811 204.809 325.95Z" fill="#313131"/>
</g>
</g>
<path d="M94.1528 312.576H33.5265V384.965H94.1528V312.576Z" fill="white"/>
<path d="M94.1518 312.576H65.7253V384.965H94.1518V312.576Z" fill="white"/>
<path d="M51.689 322.377H46.2384V334.366H51.689V322.377Z" fill="white"/>
<path d="M51.689 369.301H46.2384V381.29H51.689V369.301Z" fill="white"/>
<path d="M65.7264 339.072C65.7264 339.207 58.5168 339.315 49.6269 339.315C40.7371 339.315 33.5265 339.207 33.5265 339.072C33.5265 338.937 40.7329 338.827 49.6269 338.827C58.5209 338.827 65.7264 338.937 65.7264 339.072Z" fill="white"/>
<path d="M51.689 346.017H46.2384V358.006H51.689V346.017Z" fill="white"/>
<path d="M65.7264 362.711C65.7264 362.846 58.5168 362.955 49.6269 362.955C40.7371 362.955 33.5265 362.846 33.5265 362.711C33.5265 362.576 40.7329 362.468 49.6269 362.468C58.5209 362.468 65.7264 362.573 65.7264 362.711Z" fill="white"/>
<path d="M77.2132 322.377H71.7626V334.366H77.2132V322.377Z" fill="white"/>
<path d="M89.0395 322.377H83.5889V334.366H89.0395V322.377Z" fill="white"/>
<path d="M77.2132 345.127H71.7626V357.116H77.2132V345.127Z" fill="white"/>
<path d="M89.0395 345.127H83.5889V357.116H89.0395V345.127Z" fill="white"/>
<path d="M77.2132 367.877H71.7626V379.866H77.2132V367.877Z" fill="white"/>
<path d="M89.0395 367.877H83.5889V379.866H89.0395V367.877Z" fill="white"/>
<path d="M98.7094 310.057H28.9688V312.667H98.7094V310.057Z" fill="white"/>
<path d="M94.5749 312.913C94.5749 313.048 81.0207 313.156 64.314 313.156C47.6072 313.156 34.049 313.048 34.049 312.913C34.049 312.778 47.5958 312.669 64.314 312.669C81.0321 312.669 94.5749 312.778 94.5749 312.913Z" fill="white"/>
<path d="M96.3152 328.487C91.1243 328.487 86.0501 329.88 81.7341 332.491C77.418 335.101 74.0541 338.812 72.0677 343.154C70.0812 347.495 69.5614 352.272 70.5741 356.881C71.5868 361.49 74.0865 365.723 77.7569 369.046C81.4274 372.369 86.1039 374.632 91.195 375.549C96.2861 376.465 101.563 375.995 106.359 374.197C111.155 372.398 115.254 369.353 118.137 365.446C121.021 361.539 122.561 356.945 122.561 352.246C122.561 349.126 121.882 346.036 120.563 343.153C119.244 340.271 117.311 337.651 114.874 335.445C112.437 333.239 109.543 331.489 106.359 330.295C103.175 329.101 99.7618 328.486 96.3152 328.487V328.487ZM96.3152 364.786C93.5757 364.786 90.8977 364.05 88.62 362.673C86.3422 361.295 84.5668 359.336 83.5185 357.045C82.4701 354.754 82.1958 352.233 82.7303 349.801C83.2647 347.368 84.5839 345.134 86.521 343.38C88.4581 341.627 90.9261 340.432 93.613 339.949C96.2998 339.465 99.0848 339.713 101.616 340.662C104.147 341.611 106.31 343.218 107.832 345.28C109.354 347.342 110.166 349.767 110.166 352.247C110.166 355.572 108.707 358.761 106.109 361.113C103.512 363.464 99.9886 364.786 96.3152 364.786V364.786Z" fill="#313131"/>
<path d="M293.161 328.487C287.97 328.487 282.895 329.88 278.579 332.491C274.263 335.101 270.899 338.812 268.913 343.154C266.927 347.495 266.407 352.272 267.419 356.881C268.432 361.49 270.932 365.723 274.602 369.046C278.273 372.369 282.949 374.632 288.04 375.549C293.131 376.465 298.408 375.995 303.204 374.197C308 372.398 312.099 369.353 314.983 365.446C317.867 361.539 319.406 356.945 319.406 352.246C319.406 349.126 318.727 346.036 317.408 343.153C316.089 340.271 314.156 337.651 311.719 335.445C309.282 333.239 306.389 331.489 303.204 330.295C300.02 329.101 296.607 328.486 293.161 328.487V328.487ZM293.161 364.786C290.421 364.786 287.743 364.05 285.465 362.673C283.187 361.295 281.412 359.336 280.364 357.045C279.315 354.754 279.041 352.233 279.576 349.801C280.11 347.368 281.429 345.134 283.366 343.38C285.303 341.627 287.771 340.432 290.458 339.949C293.145 339.465 295.93 339.713 298.461 340.662C300.992 341.611 303.155 343.218 304.677 345.28C306.199 347.342 307.012 349.767 307.012 352.247C307.011 355.572 305.552 358.761 302.954 361.113C300.357 363.464 296.834 364.786 293.161 364.786Z" fill="#313131"/>
<path d="M267.08 241.645L250.613 174.364L242.951 176.069L259.413 243.351C259.663 244.27 260.306 245.063 261.201 245.553C262.096 246.043 263.17 246.192 264.186 245.966V245.966C264.689 245.854 265.164 245.654 265.582 245.377C266 245.099 266.353 244.75 266.622 244.348C266.89 243.947 267.069 243.502 267.148 243.038C267.226 242.574 267.203 242.101 267.08 241.645V241.645Z" fill="#313131"/>
<path d="M238.638 338.717H132.973L140.206 345.981C140.949 346.727 141.857 347.324 142.871 347.733C143.886 348.142 144.984 348.353 146.094 348.353H227.165C228.453 348.353 229.722 348.069 230.862 347.525C232.001 346.981 232.977 346.194 233.705 345.232L238.638 338.717Z" fill="#313131"/>
<path d="M246.74 180.765C250.639 180.765 253.8 177.904 253.8 174.374C253.8 170.845 250.639 167.983 246.74 167.983C242.841 167.983 239.681 170.845 239.681 174.374C239.681 177.904 242.841 180.765 246.74 180.765Z" fill="#313131"/>
<path d="M104.873 353.022C105.343 348.745 101.895 344.933 97.1705 344.508C92.4462 344.082 88.2353 347.204 87.7653 351.481C87.2952 355.758 90.744 359.57 95.4682 359.995C100.193 360.421 104.403 357.299 104.873 353.022Z" fill="#121212"/>
<path d="M277.468 292.774V311.284L251.212 349.728C249.353 352.45 246.749 354.691 243.653 356.235C240.556 357.779 237.072 358.572 233.537 358.539L94.5562 357.236C93.2686 357.128 92.0744 356.581 91.2147 355.706C90.355 354.832 89.8938 353.694 89.924 352.524C89.918 351.827 90.0799 351.137 90.3985 350.502C90.7171 349.867 91.1847 349.302 91.7688 348.848C92.5502 348.239 93.5277 347.874 94.5562 347.808L123.463 347.527V340.155L123.481 338.717H244.937C245.506 338.717 246.066 338.584 246.562 338.33C247.058 338.077 247.474 337.712 247.769 337.271L277.468 292.774Z" fill="#FF842E"/>
<path d="M293.161 359.498C297.585 359.498 301.171 356.252 301.171 352.247C301.171 348.242 297.585 344.995 293.161 344.995C288.737 344.995 285.15 348.242 285.15 352.247C285.15 356.252 288.737 359.498 293.161 359.498Z" fill="#121212"/>
<path d="M320.839 341.83C320.002 342.222 319.029 342.306 318.125 342.063C317.222 341.819 316.457 341.269 315.993 340.526C313.267 336.178 309.096 332.718 304.073 330.639C299.05 328.561 293.43 327.969 288.015 328.95C282.599 329.93 277.662 332.432 273.908 336.099C270.154 339.766 267.773 344.412 267.105 349.375C266.993 350.17 266.564 350.901 265.899 351.43C265.233 351.959 264.377 352.25 263.491 352.247V352.247C262.978 352.247 262.469 352.149 262 351.959C261.531 351.769 261.112 351.492 260.77 351.144C260.428 350.797 260.171 350.389 260.016 349.945C259.861 349.502 259.811 349.033 259.87 348.571C260.726 342.229 263.769 336.292 268.568 331.607C273.367 326.921 279.676 323.726 286.597 322.475C293.519 321.223 300.7 321.981 307.118 324.639C313.537 327.297 318.865 331.72 322.345 337.279C322.586 337.665 322.738 338.092 322.792 338.533C322.846 338.973 322.801 339.42 322.661 339.844C322.52 340.269 322.286 340.664 321.973 341.005C321.66 341.347 321.274 341.627 320.839 341.83V341.83Z" fill="#FF842E"/>
<path d="M68.5799 341.83C69.4172 342.222 70.3897 342.306 71.2934 342.063C72.197 341.819 72.9615 341.269 73.4263 340.526C76.1515 336.178 80.3225 332.718 85.3457 330.639C90.3689 328.561 95.9883 327.969 101.404 328.95C106.82 329.93 111.756 332.432 115.511 336.099C119.265 339.766 121.646 344.412 122.314 349.375C122.426 350.17 122.854 350.901 123.52 351.43C124.185 351.959 125.042 352.25 125.927 352.247C126.441 352.247 126.949 352.149 127.419 351.96C127.888 351.77 128.307 351.492 128.649 351.145C128.991 350.798 129.248 350.389 129.403 349.945C129.558 349.502 129.608 349.033 129.549 348.571C128.693 342.229 125.65 336.292 120.851 331.607C116.052 326.921 109.743 323.726 102.821 322.475C95.9 321.223 88.719 321.981 82.3006 324.639C75.8823 327.297 70.5537 331.72 67.0734 337.279C66.8329 337.665 66.6809 338.092 66.6267 338.533C66.5724 338.973 66.6169 339.42 66.7576 339.845C66.8982 340.269 67.1321 340.664 67.4452 341.005C67.7583 341.347 68.1442 341.627 68.5799 341.83V341.83Z" fill="#FF842E"/>
<path d="M293.162 350.048C292.681 350.047 292.212 350.176 291.812 350.417C291.413 350.658 291.102 351.001 290.918 351.403C290.733 351.804 290.685 352.246 290.779 352.672C290.872 353.099 291.103 353.491 291.442 353.798C291.782 354.106 292.214 354.315 292.685 354.4C293.156 354.485 293.644 354.441 294.088 354.275C294.532 354.109 294.911 353.827 295.178 353.466C295.444 353.105 295.587 352.68 295.587 352.245C295.587 351.662 295.331 351.104 294.877 350.692C294.422 350.28 293.805 350.048 293.162 350.048V350.048Z" fill="#121212"/>
<path d="M298.496 351.078L262.928 220.08L252.124 222.485L287.691 353.481C288.044 354.778 288.951 355.896 290.213 356.587C291.476 357.279 292.99 357.488 294.423 357.17V357.17C295.855 356.851 297.089 356.03 297.853 354.887C298.617 353.745 298.848 352.375 298.496 351.078V351.078Z" fill="#FF842E"/>
<path d="M272.337 283.203L262.854 248.273C262.728 247.807 262.811 247.314 263.086 246.903C263.361 246.493 263.804 246.198 264.319 246.083V246.083C264.574 246.026 264.839 246.015 265.099 246.051C265.359 246.087 265.609 246.169 265.833 246.292C266.058 246.415 266.254 246.577 266.41 246.769C266.565 246.961 266.678 247.178 266.74 247.409L276.223 282.337C276.349 282.803 276.266 283.296 275.992 283.707C275.718 284.117 275.275 284.413 274.76 284.528C274.505 284.585 274.24 284.596 273.98 284.561C273.72 284.525 273.47 284.443 273.245 284.32C273.02 284.197 272.824 284.035 272.668 283.843C272.512 283.651 272.4 283.434 272.337 283.203V283.203Z" fill="#121212"/>
<path d="M270.548 229.605L259.744 232.012L263.052 244.181L273.856 241.773L270.548 229.605Z" fill="#FF842E"/>
<path d="M287.562 294.5L276.757 296.904L280.061 309.074L290.866 306.669L287.562 294.5Z" fill="#FF842E"/>
<path d="M292.96 349.667C292.396 349.667 291.845 349.819 291.377 350.102C290.908 350.385 290.543 350.788 290.327 351.26C290.112 351.731 290.055 352.25 290.165 352.75C290.275 353.25 290.546 353.71 290.945 354.071C291.343 354.432 291.851 354.677 292.404 354.777C292.957 354.876 293.53 354.825 294.05 354.63C294.571 354.435 295.016 354.104 295.329 353.68C295.642 353.256 295.809 352.757 295.809 352.247C295.809 351.563 295.509 350.907 294.974 350.423C294.44 349.939 293.715 349.667 292.96 349.667V349.667Z" fill="#121212"/>
<path d="M96.3152 349.959C95.8155 349.959 95.327 350.094 94.9115 350.345C94.496 350.596 94.1722 350.953 93.9809 351.371C93.7897 351.789 93.7396 352.249 93.8371 352.693C93.9346 353.137 94.1753 353.544 94.5286 353.864C94.882 354.184 95.3322 354.402 95.8223 354.49C96.3124 354.578 96.8205 354.533 97.2821 354.36C97.7438 354.187 98.1384 353.894 98.4161 353.518C98.6937 353.141 98.8419 352.699 98.8419 352.247C98.8419 351.64 98.5757 351.058 98.1018 350.629C97.628 350.2 96.9853 349.959 96.3152 349.959Z" fill="#121212"/>
<path d="M194.322 263.906C189.408 263.906 184.696 265.673 181.222 268.818C177.748 271.963 175.796 276.229 175.796 280.677C175.796 293.255 194.322 311.824 194.322 311.824C194.322 311.824 212.848 293.255 212.848 280.677C212.848 278.475 212.369 276.294 211.438 274.259C210.507 272.224 209.142 270.375 207.422 268.818C205.702 267.26 203.659 266.025 201.412 265.182C199.164 264.34 196.755 263.906 194.322 263.906V263.906ZM194.322 286.667C193.013 286.667 191.734 286.316 190.646 285.657C189.558 284.999 188.71 284.064 188.209 282.969C187.708 281.875 187.577 280.67 187.832 279.508C188.087 278.346 188.718 277.279 189.643 276.441C190.568 275.604 191.747 275.033 193.031 274.802C194.314 274.571 195.645 274.69 196.854 275.143C198.063 275.596 199.096 276.364 199.823 277.349C200.55 278.334 200.938 279.492 200.938 280.677C200.938 281.464 200.767 282.242 200.435 282.969C200.102 283.696 199.615 284.356 199 284.912C198.386 285.469 197.657 285.91 196.854 286.211C196.051 286.512 195.191 286.667 194.322 286.667V286.667Z" fill="#63DD94"/>
</g>
<defs>
<clipPath id="clip0_3265_12239">
<rect width="388" height="488" fill="white" transform="translate(0 -35)"/>
</clipPath>
</defs>
</svg>
