<svg width="279" height="158" viewBox="0 0 279 158" fill="none" xmlns="http://www.w3.org/2000/svg">
<g clip-path="url(#clip0_1_4)" filter="url(#filter0_d_1_4)">
<path d="M62.2063 40.9845L60.8359 49.3789L60.1797 49.4565C59.7189 48.1405 59.0686 46.8995 58.2495 45.773C57.244 44.3955 55.8917 43.3115 54.3313 42.6324C52.1128 41.7792 49.7103 41.5252 47.3635 41.8957C43.451 42.3217 39.7077 43.7283 36.4775 45.9862C32.8948 48.4939 29.8954 51.7512 27.6857 55.5342C25.0939 59.9811 23.3802 64.8883 22.6383 69.9869C21.7505 75.5315 21.921 80.0551 23.1498 83.5576C24.1342 86.7425 26.2962 89.4275 29.1912 91.0603C32.2601 92.6026 35.7257 93.1642 39.1218 92.6694C41.6733 92.4494 44.1594 91.742 46.4467 90.5853C48.3365 89.6288 50.0578 88.3682 51.5423 86.8534C52.7428 85.6134 53.8043 84.2449 54.7077 82.7725L55.3061 82.7143L53.8392 92.3301C53.2505 96.0911 51.7256 98.9022 49.2358 100.783C46.7035 102.682 43.6972 103.839 40.5501 104.127C38.6394 104.42 36.6886 104.301 34.8272 103.778C33.5875 103.395 32.4782 102.673 31.6232 101.694C30.9366 100.883 30.4035 99.9538 30.0501 98.9506L19 102.692C19.3333 104.943 20.3164 107.046 21.8277 108.741C23.6023 110.631 25.8748 111.975 28.3805 112.618C31.8482 113.501 35.4536 113.699 38.9963 113.2C43.26 112.792 47.4222 111.651 51.301 109.827C54.9187 108.138 58.1116 105.653 60.6429 102.557C63.1951 99.3511 64.8388 95.5134 65.4007 91.448L73.7583 39.7631L62.2063 40.9845ZM58.1144 66.1872C57.6869 69.1471 56.7601 72.0122 55.3736 74.6591C54.2005 76.9524 52.5162 78.9428 50.4517 80.4751C48.4898 81.8859 46.1937 82.7549 43.7927 82.9954C41.6508 83.3584 39.4509 82.913 37.6163 81.745C36.0147 80.5114 34.9387 78.7135 34.6052 76.7141C34.1183 74.0644 34.1183 71.3475 34.6052 68.6977C35.052 65.7959 35.9338 62.9787 37.2206 60.3421C38.3422 57.9702 39.9738 55.8779 41.9977 54.2159C43.9699 52.6368 46.3579 51.67 48.869 51.4339C50.9929 51.0914 53.1673 51.5656 54.9586 52.7619C56.5991 54.054 57.717 55.9001 58.1048 57.9575C58.6339 60.6747 58.6371 63.4688 58.1144 66.1872Z" fill="white"/>
<path d="M122.128 47.4984C121.608 44.7204 120.34 42.1387 118.46 40.0345C116.693 38.1605 114.44 36.8179 111.956 36.1572C109.197 35.425 106.326 35.2211 103.492 35.5562C98.8632 36.0219 94.4173 37.6158 90.5409 40.1993C86.5884 42.8307 83.2527 46.2936 80.7647 50.3483C78.1395 54.6559 76.4003 59.4483 75.6498 64.4424C74.8006 69.7543 75.0129 74.2811 76.3157 78.013C77.4657 81.5335 79.9331 84.4672 83.1967 86.1942C86.4651 87.9261 90.5859 88.5335 95.5593 88.0166C99.236 87.6565 102.825 86.6733 106.175 85.1086C109.25 83.6627 112.039 81.6692 114.407 79.2247C116.655 76.8734 118.426 74.1044 119.619 71.0726L108.887 70.9757C108.157 72.4297 107.177 73.7425 105.992 74.853C104.809 75.9234 103.459 76.7912 101.996 77.4217C100.462 78.0846 98.8338 78.5032 97.171 78.6625C94.9725 78.9862 92.7283 78.7461 90.6471 77.9646C89.7922 77.6031 89.0234 77.0637 88.3913 76.382C87.7592 75.7003 87.2781 74.8918 86.9798 74.0097C86.2491 71.5216 86.1463 68.8899 86.6806 66.352V66.1969L121.423 62.5328L121.973 58.8493C122.728 55.1083 122.78 51.2587 122.128 47.4984ZM111.512 55.6408L88.1668 58.1029C88.6262 56.0755 89.4717 54.1565 90.6567 52.4517C92.0188 50.4567 93.7327 48.7287 95.7137 47.353C97.6178 45.9891 99.8365 45.1351 102.16 44.8715C104.106 44.5933 106.09 44.9322 107.835 45.8409C109.345 46.6945 110.491 48.0737 111.058 49.7182C111.701 51.624 111.841 53.6646 111.464 55.6408H111.512Z" fill="white"/>
<path d="M124.097 23.9921L122.601 28.6933L129.52 32.9875L130.331 27.8888L124.097 23.9921ZM142.172 35.2363L131.73 28.7418L130.949 33.8502L141.352 40.3253L141.912 36.7485L142.172 35.2266V35.2363ZM143.591 36.1184L142.78 41.2365L149.69 45.5307L151.215 40.8391L143.591 36.1184ZM144.961 71.2568C144.614 71.3731 144.122 71.5282 143.504 71.7027C142.834 71.8849 142.149 72.0113 141.458 72.0807C140.589 72.1964 139.706 72.1338 138.862 71.8965C138.49 71.7827 138.148 71.5871 137.861 71.3238C137.574 71.0606 137.349 70.7363 137.202 70.3747C136.816 69.2075 136.763 67.9552 137.048 66.7591L141.352 40.3253L141.931 36.7485L142.192 35.2266L142.529 33.1038L144.836 19L133.101 20.2407L132.136 26.0567L131.711 28.7224L130.949 33.8502L130.495 36.6225L125.11 69.9676C124.56 73.147 124.801 75.7836 125.805 77.7222C126.296 78.6953 126.976 79.56 127.805 80.2658C128.633 80.9715 129.594 81.5041 130.63 81.8322C133.125 82.6192 135.769 82.8084 138.351 82.3847C139.806 82.2012 141.242 81.8931 142.645 81.4639C143.842 81.0858 144.797 80.7369 145.54 80.4461L144.961 71.2568Z" fill="white"/>
<path d="M198.919 36.6613C197.768 33.0899 195.326 30.0812 192.076 28.2281C188.834 26.396 184.761 25.7175 179.849 26.2894C175.205 26.7514 170.737 28.3127 166.811 30.8453C162.895 33.3988 159.597 36.8003 157.16 40.8003C154.567 45.0595 152.845 49.7947 152.093 54.7296C151.244 60.061 151.485 64.5975 152.798 68.3876C153.953 71.9524 156.398 74.9518 159.65 76.7917C162.912 78.6043 166.984 79.2635 171.877 78.7303C176.552 78.2891 181.052 76.7194 184.993 74.1551C188.889 71.5896 192.182 68.2024 194.643 64.2291C197.253 59.9886 198.977 55.2594 199.71 50.3289C200.521 44.9975 200.257 40.4417 198.919 36.6613ZM187.888 50.8814C187.424 53.9155 186.492 56.8587 185.128 59.6054C183.91 62.1297 182.169 64.3637 180.023 66.1581C177.984 67.8598 175.481 68.9038 172.842 69.1533C171.766 69.3413 170.663 69.3058 169.6 69.0491C168.538 68.7924 167.539 68.3198 166.666 67.6606C165.096 66.2246 164.073 64.285 163.771 62.1741C163.333 59.4862 163.349 56.7433 163.819 54.0608C164.282 51.0103 165.206 48.0488 166.56 45.2786C167.775 42.7388 169.515 40.4884 171.665 38.6775C173.721 36.9726 176.239 35.926 178.893 35.6725C179.96 35.4838 181.054 35.5226 182.105 35.7865C183.156 36.0504 184.14 36.5334 184.993 37.2041C186.563 38.6515 187.586 40.6004 187.888 42.7196C188.375 45.4182 188.375 48.1828 187.888 50.8814Z" fill="white"/>
<path d="M249.151 27.0164C248.326 24.4909 246.558 22.3852 244.219 21.1422C241.561 19.8522 238.579 19.3929 235.659 19.8239C232.139 20.1379 228.758 21.349 225.835 23.3426C223.078 25.2181 220.821 27.7444 219.262 30.6999L218.674 30.758L220.102 22.1116L208.898 23.3038L200.588 74.1745L212.333 72.9337L217.159 43.1364C217.516 40.8524 218.341 38.6676 219.581 36.7194C220.687 34.9643 222.171 33.4805 223.924 32.3768C225.653 31.3023 227.604 30.6392 229.627 30.4381C232.687 30.1183 234.887 30.8356 236.277 32.5707C237.666 34.3058 238.081 36.8939 237.541 40.3253L232.58 70.8594L244.306 69.6186L249.624 37.2235C250.261 33.0941 250.106 29.7208 249.151 27.0164Z" fill="white"/>
<path d="M142.192 35.2557L141.931 36.7776L142.182 35.2363L142.51 33.1329H142.529L142.192 35.2557Z" fill="white"/>
<path d="M131.73 28.7418L130.92 33.8599L130.485 36.6225H130.447L130.91 33.8502L131.73 28.7418Z" fill="white"/>
<path d="M145.251 104.137L135.262 105.726H135.04L125.158 107.345C126.02 105.218 127.402 103.343 129.177 101.894C130.951 100.446 133.061 99.4698 135.311 99.0573C135.885 98.9615 136.466 98.9129 137.048 98.9119C139.224 98.8791 141.338 99.6364 143.002 101.044C143.971 101.895 144.739 102.951 145.251 104.137Z" fill="white"/>
<path d="M97.5184 111.736L77.58 114.906C78.4677 112.836 79.8512 111.018 81.6073 109.614C83.3634 108.21 85.4377 107.264 87.6457 106.86C88.2198 106.765 88.8008 106.716 89.3828 106.715C91.5586 106.682 93.673 107.44 95.3373 108.848C96.2642 109.64 97.0085 110.626 97.5184 111.736Z" fill="white"/>
<path d="M154.226 85.0213L151.215 103.196L147.249 103.826C146.621 102.179 145.593 100.716 144.257 99.571C142.988 98.5094 141.502 97.7411 139.904 97.3206C138.306 96.9002 136.636 96.8378 135.011 97.138C132.25 97.6539 129.676 98.9045 127.56 100.76C125.443 102.615 123.86 105.006 122.977 107.684L99.5257 111.407C98.8941 109.847 97.9016 108.462 96.6305 107.364C95.3614 106.303 93.8753 105.535 92.2775 105.114C90.6798 104.694 89.0095 104.631 87.3851 104.931C84.6546 105.431 82.1052 106.65 79.9976 108.464C77.8899 110.278 76.2996 112.621 75.3893 115.255L68.9426 116.282L71.9922 98.1073L154.226 85.0213Z" fill="white"/>
<path d="M97.5184 111.736C97.0108 110.619 96.2665 109.626 95.3373 108.828C93.673 107.42 91.5586 106.663 89.3828 106.696C88.8008 106.697 88.2198 106.745 87.6457 106.841C85.4377 107.245 83.3634 108.191 81.6073 109.595C79.8512 110.998 78.4677 112.816 77.58 114.886C76.9053 116.413 76.5537 118.063 76.5473 119.733C76.5126 121.076 76.772 122.41 77.3074 123.642C77.8427 124.873 78.6408 125.971 79.6452 126.858C80.712 127.73 81.9565 128.355 83.2907 128.69C84.6249 129.025 86.0161 129.061 87.3658 128.796C90.3938 128.24 93.1417 126.661 95.1547 124.322C97.1676 121.983 98.325 119.023 98.4352 115.933C98.4461 114.483 98.1328 113.049 97.5184 111.736ZM87.5202 122.166C86.9919 122.277 86.4455 122.265 85.9223 122.132C85.3991 122 84.9128 121.749 84.5001 121.4C84.0873 121.051 83.759 120.612 83.5399 120.117C83.3208 119.621 83.2167 119.083 83.2353 118.541C83.2734 117.342 83.7196 116.193 84.4993 115.284C85.2791 114.376 86.3453 113.763 87.5202 113.549C88.049 113.439 88.5958 113.45 89.1194 113.583C89.643 113.716 90.1298 113.966 90.5432 114.315C90.9566 114.664 91.2859 115.103 91.5061 115.598C91.7264 116.093 91.8319 116.632 91.8148 117.174C91.7762 118.374 91.3287 119.525 90.547 120.433C89.7654 121.342 88.6969 121.954 87.5202 122.166Z" fill="white"/>
<path d="M145.251 104.137C144.73 102.948 143.952 101.892 142.973 101.044C141.309 99.6364 139.195 98.8791 137.019 98.9119C136.437 98.9129 135.856 98.9615 135.282 99.0573C133.037 99.4743 130.934 100.452 129.164 101.9C127.395 103.349 126.017 105.221 125.158 107.345C124.536 108.801 124.208 110.366 124.193 111.949C124.158 113.292 124.418 114.627 124.953 115.858C125.488 117.089 126.286 118.187 127.291 119.074C128.353 119.955 129.596 120.591 130.93 120.934C132.265 121.278 133.658 121.321 135.011 121.061C138.041 120.502 140.789 118.919 142.8 116.576C144.812 114.233 145.966 111.271 146.071 108.179C146.086 106.788 145.806 105.41 145.251 104.137ZM135.127 114.373C134.598 114.481 134.052 114.468 133.529 114.334C133.006 114.2 132.52 113.949 132.107 113.599C131.695 113.249 131.367 112.81 131.147 112.314C130.928 111.819 130.824 111.28 130.842 110.738C130.881 109.555 131.316 108.419 132.079 107.516C132.841 106.614 133.885 105.996 135.04 105.765H135.262C135.784 105.677 136.318 105.707 136.827 105.852C137.336 105.996 137.806 106.253 138.204 106.603C138.602 106.952 138.918 107.386 139.128 107.873C139.339 108.361 139.439 108.889 139.422 109.419C139.375 110.613 138.923 111.754 138.142 112.655C137.361 113.556 136.298 114.162 135.127 114.373Z" fill="white"/>
</g>
<defs>
<filter id="filter0_d_1_4" x="0" y="0" width="279" height="158" filterUnits="userSpaceOnUse" color-interpolation-filters="sRGB">
<feFlood flood-opacity="0" result="BackgroundImageFix"/>
<feColorMatrix in="SourceAlpha" type="matrix" values="0 0 0 0 0 0 0 0 0 0 0 0 0 0 0 0 0 0 127 0" result="hardAlpha"/>
<feOffset dx="5" dy="5"/>
<feGaussianBlur stdDeviation="12"/>
<feColorMatrix type="matrix" values="0 0 0 0 0.708333 0 0 0 0 0.323427 0 0 0 0 0.0543056 0 0 0 0.55 0"/>
<feBlend mode="normal" in2="BackgroundImageFix" result="effect1_dropShadow_1_4"/>
<feBlend mode="normal" in="SourceGraphic" in2="effect1_dropShadow_1_4" result="shape"/>
</filter>
<clipPath id="clip0_1_4">
<rect width="231" height="110" fill="white" transform="translate(19 19)"/>
</clipPath>
</defs>
</svg>
